<svg width="328" height="169" viewBox="0 0 328 169" fill="none" xmlns="http://www.w3.org/2000/svg">
<path d="M2.228 5.816H5.468V19.928H12.74V23H2.228V5.816ZM25.8003 20.168C25.2563 21.128 24.5203 21.904 23.5923 22.496C22.6803 23.088 21.5603 23.384 20.2323 23.384C19.3363 23.384 18.5043 23.232 17.7363 22.928C16.9843 22.608 16.3283 22.168 15.7683 21.608C15.2083 21.048 14.7683 20.392 14.4483 19.64C14.1443 18.872 13.9923 18.032 13.9923 17.12C13.9923 16.272 14.1443 15.472 14.4483 14.72C14.7523 13.952 15.1763 13.288 15.7203 12.728C16.2643 12.152 16.9043 11.696 17.6403 11.36C18.3923 11.024 19.2163 10.856 20.1123 10.856C21.0563 10.856 21.8963 11.016 22.6323 11.336C23.3683 11.64 23.9843 12.072 24.4803 12.632C24.9763 13.176 25.3523 13.824 25.6083 14.576C25.8643 15.328 25.9923 16.144 25.9923 17.024C25.9923 17.136 25.9923 17.232 25.9923 17.312C25.9763 17.408 25.9683 17.496 25.9683 17.576C25.9523 17.656 25.9443 17.744 25.9443 17.84H17.0883C17.1523 18.32 17.2803 18.736 17.4723 19.088C17.6803 19.424 17.9283 19.712 18.2163 19.952C18.5203 20.176 18.8483 20.344 19.2003 20.456C19.5523 20.552 19.9123 20.6 20.2803 20.6C21.0003 20.6 21.5923 20.44 22.0563 20.12C22.5363 19.784 22.9123 19.368 23.1843 18.872L25.8003 20.168ZM22.9443 15.608C22.9283 15.4 22.8563 15.168 22.7283 14.912C22.6163 14.656 22.4403 14.416 22.2003 14.192C21.9763 13.968 21.6883 13.784 21.3363 13.64C21.0003 13.496 20.5923 13.424 20.1123 13.424C19.4403 13.424 18.8483 13.616 18.3363 14C17.8243 14.384 17.4643 14.92 17.2563 15.608H22.9443ZM28.9447 13.928H26.8807V11.24H28.9447V7.64H32.0887V11.24H34.9687V13.928H32.0887V18.488C32.0887 18.76 32.1127 19.016 32.1607 19.256C32.2247 19.48 32.3367 19.672 32.4967 19.832C32.7207 20.088 33.0407 20.216 33.4567 20.216C33.7287 20.216 33.9447 20.192 34.1047 20.144C34.2647 20.08 34.4167 20 34.5607 19.904L35.4487 22.664C35.0807 22.84 34.6807 22.968 34.2487 23.048C33.8327 23.144 33.3687 23.192 32.8567 23.192C32.2647 23.192 31.7287 23.104 31.2487 22.928C30.7847 22.736 30.3927 22.48 30.0727 22.16C29.3207 21.44 28.9447 20.416 28.9447 19.088V13.928ZM42.1719 23.384C41.4039 23.384 40.7159 23.288 40.1079 23.096C39.5159 22.904 38.9959 22.656 38.5479 22.352C38.1159 22.032 37.7479 21.672 37.4439 21.272C37.1399 20.856 36.9079 20.44 36.7479 20.024L39.5559 18.824C39.8279 19.432 40.1879 19.888 40.6359 20.192C41.0999 20.48 41.6119 20.624 42.1719 20.624C42.7479 20.624 43.2039 20.52 43.5399 20.312C43.8759 20.104 44.0439 19.856 44.0439 19.568C44.0439 19.248 43.8999 18.992 43.6119 18.8C43.3399 18.592 42.8599 18.408 42.1719 18.248L40.5159 17.888C40.1479 17.808 39.7639 17.68 39.3639 17.504C38.9799 17.328 38.6279 17.104 38.3079 16.832C37.9879 16.56 37.7239 16.232 37.5159 15.848C37.3079 15.464 37.2039 15.016 37.2039 14.504C37.2039 13.928 37.3239 13.416 37.5639 12.968C37.8199 12.52 38.1639 12.144 38.5959 11.84C39.0279 11.52 39.5319 11.28 40.1079 11.12C40.6999 10.944 41.3319 10.856 42.0039 10.856C43.1239 10.856 44.1239 11.08 45.0039 11.528C45.8839 11.96 46.5319 12.656 46.9479 13.616L44.2359 14.72C44.0119 14.256 43.6839 13.92 43.2519 13.712C42.8199 13.504 42.3879 13.4 41.9559 13.4C41.5079 13.4 41.1159 13.496 40.7799 13.688C40.4439 13.864 40.2759 14.096 40.2759 14.384C40.2759 14.656 40.4119 14.872 40.6839 15.032C40.9719 15.192 41.3559 15.336 41.8359 15.464L43.6359 15.896C44.8359 16.184 45.7239 16.648 46.2999 17.288C46.8919 17.912 47.1879 18.656 47.1879 19.52C47.1879 20.032 47.0679 20.52 46.8279 20.984C46.5879 21.448 46.2439 21.864 45.7959 22.232C45.3639 22.584 44.8359 22.864 44.2119 23.072C43.6039 23.28 42.9239 23.384 42.1719 23.384ZM58.4101 23H55.2661V13.928H53.1541V11.24H55.2661V10.088C55.2661 9.368 55.3701 8.736 55.5781 8.192C55.8021 7.632 56.1141 7.168 56.5141 6.8C56.9141 6.416 57.3861 6.128 57.9301 5.936C58.4741 5.728 59.0741 5.624 59.7301 5.624C60.0501 5.624 60.3061 5.64 60.4981 5.672C60.6901 5.704 60.8741 5.752 61.0501 5.816L60.8581 8.768C60.7461 8.72 60.6181 8.68 60.4741 8.648C60.3301 8.616 60.1461 8.6 59.9221 8.6C59.4581 8.6 59.0901 8.752 58.8181 9.056C58.5461 9.344 58.4101 9.752 58.4101 10.28V11.24H65.9941V23H62.8501V13.928H58.4101V23ZM64.4101 9.536C64.1381 9.536 63.8741 9.488 63.6181 9.392C63.3781 9.28 63.1621 9.136 62.9701 8.96C62.7941 8.768 62.6501 8.552 62.5381 8.312C62.4421 8.072 62.3941 7.808 62.3941 7.52C62.3941 7.232 62.4421 6.968 62.5381 6.728C62.6501 6.488 62.7941 6.28 62.9701 6.104C63.1621 5.912 63.3781 5.768 63.6181 5.672C63.8741 5.56 64.1381 5.504 64.4101 5.504C64.9701 5.504 65.4501 5.704 65.8501 6.104C66.2501 6.488 66.4501 6.96 66.4501 7.52C66.4501 8.08 66.2501 8.56 65.8501 8.96C65.4501 9.344 64.9701 9.536 64.4101 9.536ZM71.8273 12.776H72.0193C72.3873 12.184 72.8833 11.72 73.5073 11.384C74.1313 11.032 74.8433 10.856 75.6433 10.856C76.3793 10.856 77.0273 10.976 77.5873 11.216C78.1473 11.456 78.6033 11.8 78.9553 12.248C79.3233 12.68 79.5953 13.208 79.7713 13.832C79.9633 14.44 80.0593 15.12 80.0593 15.872V23H76.9153V16.256C76.9153 15.408 76.7233 14.784 76.3393 14.384C75.9713 13.968 75.4273 13.76 74.7073 13.76C74.2753 13.76 73.8913 13.856 73.5553 14.048C73.2353 14.224 72.9553 14.472 72.7153 14.792C72.4913 15.096 72.3153 15.464 72.1873 15.896C72.0753 16.312 72.0193 16.76 72.0193 17.24V23H68.8753V11.24H71.8273V12.776ZM91.4165 21.584H91.2245C90.9365 22.08 90.4885 22.504 89.8805 22.856C89.2725 23.208 88.5205 23.384 87.6245 23.384C86.8725 23.384 86.1525 23.232 85.4645 22.928C84.7925 22.608 84.1925 22.176 83.6645 21.632C83.1525 21.072 82.7445 20.408 82.4405 19.64C82.1365 18.872 81.9845 18.032 81.9845 17.12C81.9845 16.208 82.1365 15.368 82.4405 14.6C82.7445 13.832 83.1525 13.176 83.6645 12.632C84.1925 12.072 84.7925 11.64 85.4645 11.336C86.1525 11.016 86.8725 10.856 87.6245 10.856C88.5205 10.856 89.2725 11.032 89.8805 11.384C90.4885 11.736 90.9365 12.16 91.2245 12.656H91.4165L91.2245 10.976V5.816H94.3685V23H91.4165V21.584ZM88.2725 20.48C88.6885 20.48 89.0805 20.408 89.4485 20.264C89.8325 20.104 90.1685 19.88 90.4565 19.592C90.7445 19.304 90.9765 18.952 91.1525 18.536C91.3285 18.12 91.4165 17.648 91.4165 17.12C91.4165 16.592 91.3285 16.12 91.1525 15.704C90.9765 15.288 90.7445 14.936 90.4565 14.648C90.1685 14.36 89.8325 14.144 89.4485 14C89.0805 13.84 88.6885 13.76 88.2725 13.76C87.8565 13.76 87.4565 13.84 87.0725 14C86.7045 14.16 86.3765 14.384 86.0885 14.672C85.8005 14.96 85.5685 15.312 85.3925 15.728C85.2165 16.144 85.1285 16.608 85.1285 17.12C85.1285 17.632 85.2165 18.096 85.3925 18.512C85.5685 18.928 85.8005 19.28 86.0885 19.568C86.3765 19.856 86.7045 20.08 87.0725 20.24C87.4565 20.4 87.8565 20.48 88.2725 20.48ZM109.569 21.752H109.377C109.009 22.2 108.561 22.584 108.033 22.904C107.521 23.224 106.857 23.384 106.041 23.384C105.433 23.384 104.857 23.28 104.313 23.072C103.785 22.88 103.321 22.608 102.921 22.256C102.521 21.904 102.209 21.48 101.985 20.984C101.761 20.488 101.649 19.944 101.649 19.352C101.649 18.744 101.769 18.2 102.009 17.72C102.249 17.224 102.585 16.8 103.017 16.448C103.449 16.096 103.953 15.832 104.529 15.656C105.121 15.464 105.761 15.368 106.449 15.368C107.217 15.368 107.849 15.432 108.345 15.56C108.841 15.672 109.249 15.792 109.569 15.92V15.56C109.569 14.936 109.321 14.424 108.825 14.024C108.329 13.608 107.713 13.4 106.977 13.4C105.889 13.4 104.969 13.856 104.217 14.768L101.937 13.208C103.185 11.64 104.889 10.856 107.049 10.856C108.873 10.856 110.265 11.288 111.225 12.152C112.185 13 112.665 14.264 112.665 15.944V23H109.569V21.752ZM109.569 18.224C109.201 18.048 108.817 17.912 108.417 17.816C108.033 17.704 107.609 17.648 107.145 17.648C106.393 17.648 105.809 17.816 105.393 18.152C104.993 18.472 104.793 18.872 104.793 19.352C104.793 19.832 104.985 20.216 105.369 20.504C105.769 20.792 106.225 20.936 106.737 20.936C107.153 20.936 107.537 20.864 107.889 20.72C108.241 20.56 108.537 20.36 108.777 20.12C109.033 19.864 109.225 19.576 109.353 19.256C109.497 18.92 109.569 18.576 109.569 18.224ZM131.598 20C131.086 20.992 130.366 21.808 129.438 22.448C128.526 23.072 127.382 23.384 126.006 23.384C125.094 23.384 124.254 23.232 123.486 22.928C122.734 22.608 122.078 22.168 121.518 21.608C120.974 21.048 120.542 20.392 120.222 19.64C119.918 18.872 119.766 18.032 119.766 17.12C119.766 16.208 119.918 15.368 120.222 14.6C120.542 13.832 120.974 13.176 121.518 12.632C122.078 12.072 122.734 11.64 123.486 11.336C124.254 11.016 125.094 10.856 126.006 10.856C127.366 10.856 128.51 11.168 129.438 11.792C130.366 12.416 131.046 13.224 131.478 14.216L128.598 15.416C128.326 14.872 127.974 14.464 127.542 14.192C127.126 13.904 126.598 13.76 125.958 13.76C125.542 13.76 125.15 13.84 124.782 14C124.414 14.16 124.086 14.384 123.798 14.672C123.526 14.96 123.31 15.312 123.15 15.728C122.99 16.144 122.91 16.608 122.91 17.12C122.91 17.632 122.99 18.096 123.15 18.512C123.31 18.928 123.526 19.28 123.798 19.568C124.086 19.856 124.414 20.08 124.782 20.24C125.15 20.4 125.542 20.48 125.958 20.48C126.614 20.48 127.166 20.336 127.614 20.048C128.078 19.744 128.446 19.312 128.718 18.752L131.598 20ZM138.967 10.856C139.879 10.856 140.711 11.016 141.463 11.336C142.231 11.64 142.887 12.072 143.431 12.632C143.991 13.176 144.423 13.832 144.727 14.6C145.047 15.368 145.207 16.208 145.207 17.12C145.207 18.032 145.047 18.872 144.727 19.64C144.423 20.408 143.991 21.072 143.431 21.632C142.887 22.176 142.231 22.608 141.463 22.928C140.711 23.232 139.879 23.384 138.967 23.384C138.055 23.384 137.215 23.232 136.447 22.928C135.695 22.608 135.039 22.176 134.479 21.632C133.935 21.072 133.503 20.408 133.183 19.64C132.879 18.872 132.727 18.032 132.727 17.12C132.727 16.208 132.879 15.368 133.183 14.6C133.503 13.832 133.935 13.176 134.479 12.632C135.039 12.072 135.695 11.64 136.447 11.336C137.215 11.016 138.055 10.856 138.967 10.856ZM138.967 20.48C139.367 20.48 139.751 20.408 140.119 20.264C140.503 20.104 140.839 19.88 141.127 19.592C141.415 19.304 141.639 18.952 141.799 18.536C141.975 18.12 142.063 17.648 142.063 17.12C142.063 16.592 141.975 16.12 141.799 15.704C141.639 15.288 141.415 14.936 141.127 14.648C140.839 14.36 140.503 14.144 140.119 14C139.751 13.84 139.367 13.76 138.967 13.76C138.551 13.76 138.159 13.84 137.791 14C137.423 14.144 137.095 14.36 136.807 14.648C136.519 14.936 136.287 15.288 136.111 15.704C135.951 16.12 135.871 16.592 135.871 17.12C135.871 17.648 135.951 18.12 136.111 18.536C136.287 18.952 136.519 19.304 136.807 19.592C137.095 19.88 137.423 20.104 137.791 20.264C138.159 20.408 138.551 20.48 138.967 20.48ZM146.992 11.24H149.944V12.776H150.136C150.504 12.2 151 11.736 151.624 11.384C152.264 11.032 152.968 10.856 153.736 10.856C154.632 10.856 155.384 11.064 155.992 11.48C156.6 11.896 157.032 12.408 157.288 13.016C157.656 12.424 158.176 11.92 158.848 11.504C159.52 11.072 160.336 10.856 161.296 10.856C162.016 10.856 162.64 10.976 163.168 11.216C163.696 11.44 164.128 11.76 164.464 12.176C164.816 12.592 165.08 13.096 165.256 13.688C165.432 14.264 165.52 14.896 165.52 15.584V23H162.376V16.16C162.376 14.56 161.72 13.76 160.408 13.76C159.992 13.76 159.624 13.856 159.304 14.048C158.984 14.224 158.712 14.472 158.488 14.792C158.28 15.096 158.112 15.464 157.984 15.896C157.872 16.328 157.816 16.792 157.816 17.288V23H154.672V16.16C154.672 14.56 153.984 13.76 152.608 13.76C152.208 13.76 151.856 13.856 151.552 14.048C151.248 14.224 150.992 14.472 150.784 14.792C150.576 15.096 150.416 15.464 150.304 15.896C150.192 16.328 150.136 16.792 150.136 17.288V23H146.992V11.24ZM168.11 11.24H171.062V12.776H171.254C171.622 12.2 172.118 11.736 172.742 11.384C173.382 11.032 174.086 10.856 174.854 10.856C175.75 10.856 176.502 11.064 177.11 11.48C177.718 11.896 178.15 12.408 178.406 13.016C178.774 12.424 179.294 11.92 179.966 11.504C180.638 11.072 181.454 10.856 182.414 10.856C183.134 10.856 183.758 10.976 184.286 11.216C184.814 11.44 185.246 11.76 185.582 12.176C185.934 12.592 186.198 13.096 186.374 13.688C186.55 14.264 186.638 14.896 186.638 15.584V23H183.494V16.16C183.494 14.56 182.838 13.76 181.526 13.76C181.11 13.76 180.742 13.856 180.422 14.048C180.102 14.224 179.83 14.472 179.606 14.792C179.398 15.096 179.23 15.464 179.102 15.896C178.99 16.328 178.934 16.792 178.934 17.288V23H175.79V16.16C175.79 14.56 175.102 13.76 173.726 13.76C173.326 13.76 172.974 13.856 172.67 14.048C172.366 14.224 172.11 14.472 171.902 14.792C171.694 15.096 171.534 15.464 171.422 15.896C171.31 16.328 171.254 16.792 171.254 17.288V23H168.11V11.24ZM197.363 21.464H197.171C196.803 22.056 196.307 22.528 195.683 22.88C195.059 23.216 194.347 23.384 193.547 23.384C192.059 23.384 190.947 22.928 190.211 22.016C189.491 21.104 189.131 19.888 189.131 18.368V11.24H192.275V17.984C192.275 18.832 192.459 19.464 192.827 19.88C193.211 20.28 193.763 20.48 194.483 20.48C194.915 20.48 195.291 20.392 195.611 20.216C195.947 20.024 196.227 19.776 196.451 19.472C196.691 19.152 196.867 18.784 196.979 18.368C197.107 17.936 197.171 17.48 197.171 17V11.24H200.315V23H197.363V21.464ZM205.96 12.776H206.152C206.52 12.184 207.016 11.72 207.64 11.384C208.264 11.032 208.976 10.856 209.776 10.856C210.512 10.856 211.16 10.976 211.72 11.216C212.28 11.456 212.736 11.8 213.088 12.248C213.456 12.68 213.728 13.208 213.904 13.832C214.096 14.44 214.192 15.12 214.192 15.872V23H211.048V16.256C211.048 15.408 210.856 14.784 210.472 14.384C210.104 13.968 209.56 13.76 208.84 13.76C208.408 13.76 208.024 13.856 207.688 14.048C207.368 14.224 207.088 14.472 206.848 14.792C206.624 15.096 206.448 15.464 206.32 15.896C206.208 16.312 206.152 16.76 206.152 17.24V23H203.008V11.24H205.96V12.776ZM218.541 9.536C218.269 9.536 218.005 9.488 217.749 9.392C217.509 9.28 217.293 9.136 217.101 8.96C216.925 8.768 216.781 8.552 216.669 8.312C216.573 8.072 216.525 7.808 216.525 7.52C216.525 7.232 216.573 6.968 216.669 6.728C216.781 6.488 216.925 6.28 217.101 6.104C217.293 5.912 217.509 5.768 217.749 5.672C218.005 5.56 218.269 5.504 218.541 5.504C219.101 5.504 219.581 5.704 219.981 6.104C220.381 6.488 220.581 6.96 220.581 7.52C220.581 8.08 220.381 8.56 219.981 8.96C219.581 9.344 219.101 9.536 218.541 9.536ZM216.981 23V11.24H220.125V23H216.981ZM224.179 13.928H222.115V11.24H224.179V7.64H227.323V11.24H230.203V13.928H227.323V18.488C227.323 18.76 227.347 19.016 227.395 19.256C227.459 19.48 227.571 19.672 227.731 19.832C227.955 20.088 228.275 20.216 228.691 20.216C228.963 20.216 229.179 20.192 229.339 20.144C229.499 20.08 229.651 20 229.795 19.904L230.683 22.664C230.315 22.84 229.915 22.968 229.483 23.048C229.067 23.144 228.603 23.192 228.091 23.192C227.499 23.192 226.963 23.104 226.483 22.928C226.019 22.736 225.627 22.48 225.307 22.16C224.555 21.44 224.179 20.416 224.179 19.088V13.928ZM236.329 22.424L231.385 11.24H234.961L237.937 18.368H238.105L240.961 11.24H244.465L237.097 28.184H233.713L236.329 22.424ZM256.511 5.624C256.959 5.624 257.375 5.664 257.759 5.744C258.143 5.824 258.487 5.928 258.791 6.056L257.903 8.864C257.743 8.784 257.567 8.72 257.375 8.672C257.199 8.624 256.975 8.6 256.703 8.6C256.239 8.6 255.871 8.752 255.599 9.056C255.327 9.344 255.191 9.752 255.191 10.28V11.24H258.119V13.928H255.191V23H252.047V13.928H249.935V11.24H252.047V10.088C252.047 9.368 252.151 8.736 252.359 8.192C252.583 7.632 252.895 7.168 253.295 6.8C253.695 6.416 254.167 6.128 254.711 5.936C255.255 5.728 255.855 5.624 256.511 5.624ZM265.084 10.856C265.996 10.856 266.828 11.016 267.58 11.336C268.348 11.64 269.004 12.072 269.548 12.632C270.108 13.176 270.54 13.832 270.844 14.6C271.164 15.368 271.324 16.208 271.324 17.12C271.324 18.032 271.164 18.872 270.844 19.64C270.54 20.408 270.108 21.072 269.548 21.632C269.004 22.176 268.348 22.608 267.58 22.928C266.828 23.232 265.996 23.384 265.084 23.384C264.172 23.384 263.332 23.232 262.564 22.928C261.812 22.608 261.156 22.176 260.596 21.632C260.052 21.072 259.62 20.408 259.3 19.64C258.996 18.872 258.844 18.032 258.844 17.12C258.844 16.208 258.996 15.368 259.3 14.6C259.62 13.832 260.052 13.176 260.596 12.632C261.156 12.072 261.812 11.64 262.564 11.336C263.332 11.016 264.172 10.856 265.084 10.856ZM265.084 20.48C265.484 20.48 265.868 20.408 266.236 20.264C266.62 20.104 266.956 19.88 267.244 19.592C267.532 19.304 267.756 18.952 267.916 18.536C268.092 18.12 268.18 17.648 268.18 17.12C268.18 16.592 268.092 16.12 267.916 15.704C267.756 15.288 267.532 14.936 267.244 14.648C266.956 14.36 266.62 14.144 266.236 14C265.868 13.84 265.484 13.76 265.084 13.76C264.668 13.76 264.276 13.84 263.908 14C263.54 14.144 263.212 14.36 262.924 14.648C262.636 14.936 262.404 15.288 262.228 15.704C262.068 16.12 261.988 16.592 261.988 17.12C261.988 17.648 262.068 18.12 262.228 18.536C262.404 18.952 262.636 19.304 262.924 19.592C263.212 19.88 263.54 20.104 263.908 20.264C264.276 20.408 264.668 20.48 265.084 20.48ZM273.11 11.24H276.062V12.872H276.254C276.398 12.584 276.59 12.32 276.83 12.08C277.07 11.84 277.334 11.632 277.622 11.456C277.926 11.28 278.246 11.144 278.582 11.048C278.934 10.952 279.278 10.904 279.614 10.904C280.03 10.904 280.382 10.944 280.67 11.024C280.974 11.104 281.23 11.208 281.438 11.336L280.598 14.192C280.406 14.096 280.19 14.024 279.95 13.976C279.726 13.912 279.446 13.88 279.11 13.88C278.678 13.88 278.286 13.968 277.934 14.144C277.582 14.304 277.278 14.536 277.022 14.84C276.782 15.144 276.59 15.504 276.446 15.92C276.318 16.32 276.254 16.76 276.254 17.24V23H273.11V11.24ZM291.853 22.424L286.909 11.24H290.485L293.461 18.368H293.629L296.485 11.24H299.989L292.621 28.184H289.237L291.853 22.424ZM306.521 10.856C307.433 10.856 308.265 11.016 309.017 11.336C309.785 11.64 310.441 12.072 310.985 12.632C311.545 13.176 311.977 13.832 312.281 14.6C312.601 15.368 312.761 16.208 312.761 17.12C312.761 18.032 312.601 18.872 312.281 19.64C311.977 20.408 311.545 21.072 310.985 21.632C310.441 22.176 309.785 22.608 309.017 22.928C308.265 23.232 307.433 23.384 306.521 23.384C305.609 23.384 304.769 23.232 304.001 22.928C303.249 22.608 302.593 22.176 302.033 21.632C301.489 21.072 301.057 20.408 300.737 19.64C300.433 18.872 300.281 18.032 300.281 17.12C300.281 16.208 300.433 15.368 300.737 14.6C301.057 13.832 301.489 13.176 302.033 12.632C302.593 12.072 303.249 11.64 304.001 11.336C304.769 11.016 305.609 10.856 306.521 10.856ZM306.521 20.48C306.921 20.48 307.305 20.408 307.673 20.264C308.057 20.104 308.393 19.88 308.681 19.592C308.969 19.304 309.193 18.952 309.353 18.536C309.529 18.12 309.617 17.648 309.617 17.12C309.617 16.592 309.529 16.12 309.353 15.704C309.193 15.288 308.969 14.936 308.681 14.648C308.393 14.36 308.057 14.144 307.673 14C307.305 13.84 306.921 13.76 306.521 13.76C306.105 13.76 305.713 13.84 305.345 14C304.977 14.144 304.649 14.36 304.361 14.648C304.073 14.936 303.841 15.288 303.665 15.704C303.505 16.12 303.425 16.592 303.425 17.12C303.425 17.648 303.505 18.12 303.665 18.536C303.841 18.952 304.073 19.304 304.361 19.592C304.649 19.88 304.977 20.104 305.345 20.264C305.713 20.408 306.105 20.48 306.521 20.48ZM322.8 21.464H322.608C322.24 22.056 321.744 22.528 321.12 22.88C320.496 23.216 319.784 23.384 318.984 23.384C317.496 23.384 316.384 22.928 315.648 22.016C314.928 21.104 314.568 19.888 314.568 18.368V11.24H317.712V17.984C317.712 18.832 317.896 19.464 318.264 19.88C318.648 20.28 319.2 20.48 319.92 20.48C320.352 20.48 320.728 20.392 321.048 20.216C321.384 20.024 321.664 19.776 321.888 19.472C322.128 19.152 322.304 18.784 322.416 18.368C322.544 17.936 322.608 17.48 322.608 17V11.24H325.752V23H322.8V21.464Z" fill="#202832"/>
<path d="M77 52.224C76.552 52.224 76.1507 52.168 75.796 52.056C75.4507 51.944 75.1473 51.7993 74.886 51.622C74.634 51.4353 74.4193 51.2253 74.242 50.992C74.0647 50.7493 73.9293 50.5067 73.836 50.264L75.474 49.564C75.6327 49.9187 75.8427 50.1847 76.104 50.362C76.3747 50.53 76.6733 50.614 77 50.614C77.336 50.614 77.602 50.5533 77.798 50.432C77.994 50.3107 78.092 50.166 78.092 49.998C78.092 49.8113 78.008 49.662 77.84 49.55C77.6813 49.4287 77.4013 49.3213 77 49.228L76.034 49.018C75.8193 48.9713 75.5953 48.8967 75.362 48.794C75.138 48.6913 74.9327 48.5607 74.746 48.402C74.5593 48.2433 74.4053 48.052 74.284 47.828C74.1627 47.604 74.102 47.3427 74.102 47.044C74.102 46.708 74.172 46.4093 74.312 46.148C74.4613 45.8867 74.662 45.6673 74.914 45.49C75.166 45.3033 75.46 45.1633 75.796 45.07C76.1413 44.9673 76.51 44.916 76.902 44.916C77.5553 44.916 78.1387 45.0467 78.652 45.308C79.1653 45.56 79.5433 45.966 79.786 46.526L78.204 47.17C78.0733 46.8993 77.882 46.7033 77.63 46.582C77.378 46.4607 77.126 46.4 76.874 46.4C76.6127 46.4 76.384 46.456 76.188 46.568C75.992 46.6707 75.894 46.806 75.894 46.974C75.894 47.1327 75.9733 47.2587 76.132 47.352C76.3 47.4453 76.524 47.5293 76.804 47.604L77.854 47.856C78.554 48.024 79.072 48.2947 79.408 48.668C79.7533 49.032 79.926 49.466 79.926 49.97C79.926 50.2687 79.856 50.5533 79.716 50.824C79.576 51.0947 79.3753 51.3373 79.114 51.552C78.862 51.7573 78.554 51.9207 78.19 52.042C77.8353 52.1633 77.4387 52.224 77 52.224ZM81.7392 46.708H80.5352V45.14H81.7392V43.04H83.5732V45.14H85.2532V46.708H83.5732V49.368C83.5732 49.5267 83.5872 49.676 83.6152 49.816C83.6526 49.9467 83.7179 50.0587 83.8112 50.152C83.9419 50.3013 84.1286 50.376 84.3712 50.376C84.5299 50.376 84.6559 50.362 84.7492 50.334C84.8426 50.2967 84.9312 50.25 85.0152 50.194L85.5332 51.804C85.3186 51.9067 85.0852 51.9813 84.8332 52.028C84.5906 52.084 84.3199 52.112 84.0212 52.112C83.6759 52.112 83.3632 52.0607 83.0832 51.958C82.8126 51.846 82.5839 51.6967 82.3972 51.51C81.9586 51.09 81.7392 50.4927 81.7392 49.718V46.708ZM90.6936 51.272H90.5816C90.367 51.5333 90.1056 51.7573 89.7976 51.944C89.499 52.1307 89.1116 52.224 88.6356 52.224C88.281 52.224 87.945 52.1633 87.6276 52.042C87.3196 51.93 87.049 51.7713 86.8156 51.566C86.5823 51.3607 86.4003 51.1133 86.2696 50.824C86.139 50.5347 86.0736 50.2173 86.0736 49.872C86.0736 49.5173 86.1436 49.2 86.2836 48.92C86.4236 48.6307 86.6196 48.3833 86.8716 48.178C87.1236 47.9727 87.4176 47.8187 87.7536 47.716C88.099 47.604 88.4723 47.548 88.8736 47.548C89.3216 47.548 89.6903 47.5853 89.9796 47.66C90.269 47.7253 90.507 47.7953 90.6936 47.87V47.66C90.6936 47.296 90.549 46.9973 90.2596 46.764C89.9703 46.5213 89.611 46.4 89.1816 46.4C88.547 46.4 88.0103 46.666 87.5716 47.198L86.2416 46.288C86.9696 45.3733 87.9636 44.916 89.2236 44.916C90.2876 44.916 91.0996 45.168 91.6596 45.672C92.2196 46.1667 92.4996 46.904 92.4996 47.884V52H90.6936V51.272ZM90.6936 49.214C90.479 49.1113 90.255 49.032 90.0216 48.976C89.7976 48.9107 89.5503 48.878 89.2796 48.878C88.841 48.878 88.5003 48.976 88.2576 49.172C88.0243 49.3587 87.9076 49.592 87.9076 49.872C87.9076 50.152 88.0196 50.376 88.2436 50.544C88.477 50.712 88.743 50.796 89.0416 50.796C89.2843 50.796 89.5083 50.754 89.7136 50.67C89.919 50.5767 90.0916 50.46 90.2316 50.32C90.381 50.1707 90.493 50.0027 90.5676 49.816C90.6516 49.62 90.6936 49.4193 90.6936 49.214ZM95.6798 46.092H95.7918C95.9785 45.7467 96.2492 45.4713 96.6038 45.266C96.9678 45.0513 97.3692 44.944 97.8078 44.944C97.9665 44.944 98.0925 44.9487 98.1858 44.958C98.2792 44.9673 98.3678 44.986 98.4518 45.014V46.834C98.3492 46.7873 98.2325 46.75 98.1018 46.722C97.9805 46.694 97.8312 46.68 97.6538 46.68C97.0752 46.68 96.6178 46.8573 96.2818 47.212C95.9552 47.5573 95.7918 48.0333 95.7918 48.64V52H93.9578V45.14H95.6798V46.092ZM100.482 46.708H99.2778V45.14H100.482V43.04H102.316V45.14H103.996V46.708H102.316V49.368C102.316 49.5267 102.33 49.676 102.358 49.816C102.395 49.9467 102.46 50.0587 102.554 50.152C102.684 50.3013 102.871 50.376 103.114 50.376C103.272 50.376 103.398 50.362 103.492 50.334C103.585 50.2967 103.674 50.25 103.758 50.194L104.276 51.804C104.061 51.9067 103.828 51.9813 103.576 52.028C103.333 52.084 103.062 52.112 102.764 52.112C102.418 52.112 102.106 52.0607 101.826 51.958C101.555 51.846 101.326 51.6967 101.14 51.51C100.701 51.09 100.482 50.4927 100.482 49.718V46.708ZM108.423 45.14H110.145V46.036H110.257C110.471 45.7 110.761 45.4293 111.125 45.224C111.498 45.0187 111.909 44.916 112.357 44.916C112.879 44.916 113.318 45.0373 113.673 45.28C114.027 45.5227 114.279 45.8213 114.429 46.176C114.643 45.8307 114.947 45.5367 115.339 45.294C115.731 45.042 116.207 44.916 116.767 44.916C117.187 44.916 117.551 44.986 117.859 45.126C118.167 45.2567 118.419 45.4433 118.615 45.686C118.82 45.9287 118.974 46.2227 119.077 46.568C119.179 46.904 119.231 47.2727 119.231 47.674V52H117.397V48.01C117.397 47.0767 117.014 46.61 116.249 46.61C116.006 46.61 115.791 46.666 115.605 46.778C115.418 46.8807 115.259 47.0253 115.129 47.212C115.007 47.3893 114.909 47.604 114.835 47.856C114.769 48.108 114.737 48.3787 114.737 48.668V52H112.903V48.01C112.903 47.0767 112.501 46.61 111.699 46.61C111.465 46.61 111.26 46.666 111.083 46.778C110.905 46.8807 110.756 47.0253 110.635 47.212C110.513 47.3893 110.42 47.604 110.355 47.856C110.289 48.108 110.257 48.3787 110.257 48.668V52H108.423V45.14ZM124.901 51.272H124.789C124.574 51.5333 124.313 51.7573 124.005 51.944C123.706 52.1307 123.319 52.224 122.843 52.224C122.488 52.224 122.152 52.1633 121.835 52.042C121.527 51.93 121.256 51.7713 121.023 51.566C120.789 51.3607 120.607 51.1133 120.477 50.824C120.346 50.5347 120.281 50.2173 120.281 49.872C120.281 49.5173 120.351 49.2 120.491 48.92C120.631 48.6307 120.827 48.3833 121.079 48.178C121.331 47.9727 121.625 47.8187 121.961 47.716C122.306 47.604 122.679 47.548 123.081 47.548C123.529 47.548 123.897 47.5853 124.187 47.66C124.476 47.7253 124.714 47.7953 124.901 47.87V47.66C124.901 47.296 124.756 46.9973 124.467 46.764C124.177 46.5213 123.818 46.4 123.389 46.4C122.754 46.4 122.217 46.666 121.779 47.198L120.449 46.288C121.177 45.3733 122.171 44.916 123.431 44.916C124.495 44.916 125.307 45.168 125.867 45.672C126.427 46.1667 126.707 46.904 126.707 47.884V52H124.901V51.272ZM124.901 49.214C124.686 49.1113 124.462 49.032 124.229 48.976C124.005 48.9107 123.757 48.878 123.487 48.878C123.048 48.878 122.707 48.976 122.465 49.172C122.231 49.3587 122.115 49.592 122.115 49.872C122.115 50.152 122.227 50.376 122.451 50.544C122.684 50.712 122.95 50.796 123.249 50.796C123.491 50.796 123.715 50.754 123.921 50.67C124.126 50.5767 124.299 50.46 124.439 50.32C124.588 50.1707 124.7 50.0027 124.775 49.816C124.859 49.62 124.901 49.4193 124.901 49.214ZM128.165 41.976H129.999V47.436H130.083L132.379 45.14H134.647V45.252L132.099 47.73L134.857 51.888V52H132.687L130.811 48.99L129.999 49.788V52H128.165V41.976ZM136.611 44.146C136.452 44.146 136.298 44.118 136.149 44.062C136.009 43.9967 135.883 43.9127 135.771 43.81C135.668 43.698 135.584 43.572 135.519 43.432C135.463 43.292 135.435 43.138 135.435 42.97C135.435 42.802 135.463 42.648 135.519 42.508C135.584 42.368 135.668 42.2467 135.771 42.144C135.883 42.032 136.009 41.948 136.149 41.892C136.298 41.8267 136.452 41.794 136.611 41.794C136.937 41.794 137.217 41.9107 137.451 42.144C137.684 42.368 137.801 42.6433 137.801 42.97C137.801 43.2967 137.684 43.5767 137.451 43.81C137.217 44.034 136.937 44.146 136.611 44.146ZM135.701 52V45.14H137.535V52H135.701ZM140.934 46.036H141.046C141.26 45.6907 141.55 45.42 141.914 45.224C142.278 45.0187 142.693 44.916 143.16 44.916C143.589 44.916 143.967 44.986 144.294 45.126C144.62 45.266 144.886 45.4667 145.092 45.728C145.306 45.98 145.465 46.288 145.568 46.652C145.68 47.0067 145.736 47.4033 145.736 47.842V52H143.902V48.066C143.902 47.5713 143.79 47.2073 143.566 46.974C143.351 46.7313 143.034 46.61 142.614 46.61C142.362 46.61 142.138 46.666 141.942 46.778C141.755 46.8807 141.592 47.0253 141.452 47.212C141.321 47.3893 141.218 47.604 141.144 47.856C141.078 48.0987 141.046 48.36 141.046 48.64V52H139.212V45.14H140.934V46.036ZM150.346 55.248C149.861 55.248 149.427 55.1827 149.044 55.052C148.671 54.9307 148.344 54.7673 148.064 54.562C147.784 54.366 147.551 54.1467 147.364 53.904C147.178 53.6613 147.042 53.4187 146.958 53.176L148.708 52.476C148.839 52.84 149.054 53.12 149.352 53.316C149.651 53.5213 149.982 53.624 150.346 53.624C150.925 53.624 151.382 53.442 151.718 53.078C152.054 52.7233 152.222 52.224 152.222 51.58V51.104H152.11C151.896 51.4027 151.611 51.6407 151.256 51.818C150.911 51.986 150.5 52.07 150.024 52.07C149.614 52.07 149.212 51.986 148.82 51.818C148.438 51.65 148.097 51.412 147.798 51.104C147.5 50.7867 147.257 50.4087 147.07 49.97C146.884 49.5313 146.79 49.0413 146.79 48.5C146.79 47.9587 146.884 47.4687 147.07 47.03C147.257 46.582 147.5 46.204 147.798 45.896C148.097 45.5787 148.438 45.336 148.82 45.168C149.212 45 149.614 44.916 150.024 44.916C150.5 44.916 150.911 45.0047 151.256 45.182C151.611 45.35 151.896 45.5833 152.11 45.882H152.222V45.14H153.972V51.51C153.972 52.0887 153.884 52.6067 153.706 53.064C153.529 53.5307 153.282 53.9227 152.964 54.24C152.647 54.5667 152.264 54.814 151.816 54.982C151.378 55.1593 150.888 55.248 150.346 55.248ZM150.416 50.418C150.64 50.418 150.86 50.376 151.074 50.292C151.298 50.208 151.494 50.0867 151.662 49.928C151.83 49.76 151.966 49.5593 152.068 49.326C152.171 49.0833 152.222 48.808 152.222 48.5C152.222 48.192 152.171 47.9167 152.068 47.674C151.966 47.4313 151.83 47.2307 151.662 47.072C151.494 46.904 151.298 46.778 151.074 46.694C150.86 46.61 150.64 46.568 150.416 46.568C150.192 46.568 149.973 46.61 149.758 46.694C149.544 46.778 149.352 46.904 149.184 47.072C149.016 47.24 148.881 47.4453 148.778 47.688C148.676 47.9213 148.624 48.192 148.624 48.5C148.624 48.808 148.676 49.0833 148.778 49.326C148.881 49.5593 149.016 49.76 149.184 49.928C149.352 50.0867 149.544 50.208 149.758 50.292C149.973 50.376 150.192 50.418 150.416 50.418ZM165.122 50.25C164.823 50.8287 164.403 51.3047 163.862 51.678C163.33 52.042 162.663 52.224 161.86 52.224C161.328 52.224 160.838 52.1353 160.39 51.958C159.951 51.7713 159.569 51.5147 159.242 51.188C158.925 50.8613 158.673 50.4787 158.486 50.04C158.309 49.592 158.22 49.102 158.22 48.57C158.22 48.038 158.309 47.548 158.486 47.1C158.673 46.652 158.925 46.2693 159.242 45.952C159.569 45.6253 159.951 45.3733 160.39 45.196C160.838 45.0093 161.328 44.916 161.86 44.916C162.653 44.916 163.321 45.098 163.862 45.462C164.403 45.826 164.8 46.2973 165.052 46.876L163.372 47.576C163.213 47.2587 163.008 47.0207 162.756 46.862C162.513 46.694 162.205 46.61 161.832 46.61C161.589 46.61 161.361 46.6567 161.146 46.75C160.931 46.8433 160.74 46.974 160.572 47.142C160.413 47.31 160.287 47.5153 160.194 47.758C160.101 48.0007 160.054 48.2713 160.054 48.57C160.054 48.8687 160.101 49.1393 160.194 49.382C160.287 49.6247 160.413 49.83 160.572 49.998C160.74 50.166 160.931 50.2967 161.146 50.39C161.361 50.4833 161.589 50.53 161.832 50.53C162.215 50.53 162.537 50.446 162.798 50.278C163.069 50.1007 163.283 49.8487 163.442 49.522L165.122 50.25ZM166.241 41.976H168.075V44.79L167.963 46.036H168.075C168.271 45.7093 168.551 45.4433 168.915 45.238C169.288 45.0233 169.704 44.916 170.161 44.916C171.048 44.916 171.701 45.1773 172.121 45.7C172.55 46.2227 172.765 46.9367 172.765 47.842V52H170.931V48.066C170.931 47.59 170.819 47.2307 170.595 46.988C170.371 46.736 170.058 46.61 169.657 46.61C169.405 46.61 169.181 46.666 168.985 46.778C168.789 46.8807 168.621 47.0253 168.481 47.212C168.35 47.3987 168.248 47.618 168.173 47.87C168.108 48.1127 168.075 48.374 168.075 48.654V52H166.241V41.976ZM178.44 51.272H178.328C178.113 51.5333 177.852 51.7573 177.544 51.944C177.245 52.1307 176.858 52.224 176.382 52.224C176.027 52.224 175.691 52.1633 175.374 52.042C175.066 51.93 174.795 51.7713 174.562 51.566C174.328 51.3607 174.146 51.1133 174.016 50.824C173.885 50.5347 173.82 50.2173 173.82 49.872C173.82 49.5173 173.89 49.2 174.03 48.92C174.17 48.6307 174.366 48.3833 174.618 48.178C174.87 47.9727 175.164 47.8187 175.5 47.716C175.845 47.604 176.218 47.548 176.62 47.548C177.068 47.548 177.436 47.5853 177.726 47.66C178.015 47.7253 178.253 47.7953 178.44 47.87V47.66C178.44 47.296 178.295 46.9973 178.006 46.764C177.716 46.5213 177.357 46.4 176.928 46.4C176.293 46.4 175.756 46.666 175.318 47.198L173.988 46.288C174.716 45.3733 175.71 44.916 176.97 44.916C178.034 44.916 178.846 45.168 179.406 45.672C179.966 46.1667 180.246 46.904 180.246 47.884V52H178.44V51.272ZM178.44 49.214C178.225 49.1113 178.001 49.032 177.768 48.976C177.544 48.9107 177.296 48.878 177.026 48.878C176.587 48.878 176.246 48.976 176.004 49.172C175.77 49.3587 175.654 49.592 175.654 49.872C175.654 50.152 175.766 50.376 175.99 50.544C176.223 50.712 176.489 50.796 176.788 50.796C177.03 50.796 177.254 50.754 177.46 50.67C177.665 50.5767 177.838 50.46 177.978 50.32C178.127 50.1707 178.239 50.0027 178.314 49.816C178.398 49.62 178.44 49.4193 178.44 49.214ZM183.426 46.036H183.538C183.753 45.6907 184.042 45.42 184.406 45.224C184.77 45.0187 185.185 44.916 185.652 44.916C186.081 44.916 186.459 44.986 186.786 45.126C187.113 45.266 187.379 45.4667 187.584 45.728C187.799 45.98 187.957 46.288 188.06 46.652C188.172 47.0067 188.228 47.4033 188.228 47.842V52H186.394V48.066C186.394 47.5713 186.282 47.2073 186.058 46.974C185.843 46.7313 185.526 46.61 185.106 46.61C184.854 46.61 184.63 46.666 184.434 46.778C184.247 46.8807 184.084 47.0253 183.944 47.212C183.813 47.3893 183.711 47.604 183.636 47.856C183.571 48.0987 183.538 48.36 183.538 48.64V52H181.704V45.14H183.426V46.036ZM192.839 55.248C192.353 55.248 191.919 55.1827 191.537 55.052C191.163 54.9307 190.837 54.7673 190.557 54.562C190.277 54.366 190.043 54.1467 189.857 53.904C189.67 53.6613 189.535 53.4187 189.451 53.176L191.201 52.476C191.331 52.84 191.546 53.12 191.845 53.316C192.143 53.5213 192.475 53.624 192.839 53.624C193.417 53.624 193.875 53.442 194.211 53.078C194.547 52.7233 194.715 52.224 194.715 51.58V51.104H194.603C194.388 51.4027 194.103 51.6407 193.749 51.818C193.403 51.986 192.993 52.07 192.517 52.07C192.106 52.07 191.705 51.986 191.313 51.818C190.93 51.65 190.589 51.412 190.291 51.104C189.992 50.7867 189.749 50.4087 189.563 49.97C189.376 49.5313 189.283 49.0413 189.283 48.5C189.283 47.9587 189.376 47.4687 189.563 47.03C189.749 46.582 189.992 46.204 190.291 45.896C190.589 45.5787 190.93 45.336 191.313 45.168C191.705 45 192.106 44.916 192.517 44.916C192.993 44.916 193.403 45.0047 193.749 45.182C194.103 45.35 194.388 45.5833 194.603 45.882H194.715V45.14H196.465V51.51C196.465 52.0887 196.376 52.6067 196.199 53.064C196.021 53.5307 195.774 53.9227 195.457 54.24C195.139 54.5667 194.757 54.814 194.309 54.982C193.87 55.1593 193.38 55.248 192.839 55.248ZM192.909 50.418C193.133 50.418 193.352 50.376 193.567 50.292C193.791 50.208 193.987 50.0867 194.155 49.928C194.323 49.76 194.458 49.5593 194.561 49.326C194.663 49.0833 194.715 48.808 194.715 48.5C194.715 48.192 194.663 47.9167 194.561 47.674C194.458 47.4313 194.323 47.2307 194.155 47.072C193.987 46.904 193.791 46.778 193.567 46.694C193.352 46.61 193.133 46.568 192.909 46.568C192.685 46.568 192.465 46.61 192.251 46.694C192.036 46.778 191.845 46.904 191.677 47.072C191.509 47.24 191.373 47.4453 191.271 47.688C191.168 47.9213 191.117 48.192 191.117 48.5C191.117 48.808 191.168 49.0833 191.271 49.326C191.373 49.5593 191.509 49.76 191.677 49.928C191.845 50.0867 192.036 50.208 192.251 50.292C192.465 50.376 192.685 50.418 192.909 50.418ZM204.456 50.348C204.138 50.908 203.709 51.3607 203.168 51.706C202.636 52.0513 201.982 52.224 201.208 52.224C200.685 52.224 200.2 52.1353 199.752 51.958C199.313 51.7713 198.93 51.5147 198.604 51.188C198.277 50.8613 198.02 50.4787 197.834 50.04C197.656 49.592 197.568 49.102 197.568 48.57C197.568 48.0753 197.656 47.6087 197.834 47.17C198.011 46.722 198.258 46.3347 198.576 46.008C198.893 45.672 199.266 45.406 199.696 45.21C200.134 45.014 200.615 44.916 201.138 44.916C201.688 44.916 202.178 45.0093 202.608 45.196C203.037 45.3733 203.396 45.6253 203.686 45.952C203.975 46.2693 204.194 46.6473 204.344 47.086C204.493 47.5247 204.568 48.0007 204.568 48.514C204.568 48.5793 204.568 48.6353 204.568 48.682C204.558 48.738 204.554 48.7893 204.554 48.836C204.544 48.8827 204.54 48.934 204.54 48.99H199.374C199.411 49.27 199.486 49.5127 199.598 49.718C199.719 49.914 199.864 50.082 200.032 50.222C200.209 50.3527 200.4 50.4507 200.606 50.516C200.811 50.572 201.021 50.6 201.236 50.6C201.656 50.6 202.001 50.5067 202.272 50.32C202.552 50.124 202.771 49.8813 202.93 49.592L204.456 50.348ZM202.79 47.688C202.78 47.5667 202.738 47.4313 202.664 47.282C202.598 47.1327 202.496 46.9927 202.356 46.862C202.225 46.7313 202.057 46.624 201.852 46.54C201.656 46.456 201.418 46.414 201.138 46.414C200.746 46.414 200.4 46.526 200.102 46.75C199.803 46.974 199.593 47.2867 199.472 47.688H202.79ZM206.845 52.084C206.509 52.084 206.22 51.9673 205.977 51.734C205.744 51.4913 205.627 51.202 205.627 50.866C205.627 50.53 205.744 50.2453 205.977 50.012C206.22 49.7787 206.509 49.662 206.845 49.662C207.181 49.662 207.466 49.7787 207.699 50.012C207.932 50.2453 208.049 50.53 208.049 50.866C208.049 51.202 207.932 51.4913 207.699 51.734C207.466 51.9673 207.181 52.084 206.845 52.084ZM212.575 41.976H214.409V44.986L214.297 45.966H214.409C214.577 45.6767 214.838 45.4293 215.193 45.224C215.548 45.0187 215.986 44.916 216.509 44.916C216.948 44.916 217.363 45.0093 217.755 45.196C218.156 45.3733 218.506 45.6253 218.805 45.952C219.113 46.2693 219.356 46.652 219.533 47.1C219.71 47.548 219.799 48.038 219.799 48.57C219.799 49.102 219.71 49.592 219.533 50.04C219.356 50.488 219.113 50.8753 218.805 51.202C218.506 51.5193 218.156 51.7713 217.755 51.958C217.363 52.1353 216.948 52.224 216.509 52.224C215.986 52.224 215.548 52.1213 215.193 51.916C214.838 51.7107 214.577 51.4633 214.409 51.174H214.297V52H212.575V41.976ZM216.131 50.53C216.374 50.53 216.602 50.4833 216.817 50.39C217.041 50.2967 217.237 50.166 217.405 49.998C217.573 49.83 217.708 49.6247 217.811 49.382C217.914 49.1393 217.965 48.8687 217.965 48.57C217.965 48.2713 217.914 48.0007 217.811 47.758C217.708 47.5153 217.573 47.31 217.405 47.142C217.237 46.974 217.041 46.8433 216.817 46.75C216.602 46.6567 216.374 46.61 216.131 46.61C215.888 46.61 215.655 46.6567 215.431 46.75C215.216 46.834 215.025 46.96 214.857 47.128C214.689 47.296 214.554 47.5013 214.451 47.744C214.348 47.9867 214.297 48.262 214.297 48.57C214.297 48.878 214.348 49.1533 214.451 49.396C214.554 49.6387 214.689 49.844 214.857 50.012C215.025 50.18 215.216 50.3107 215.431 50.404C215.655 50.488 215.888 50.53 216.131 50.53ZM222.852 51.664L219.968 45.14H222.054L223.79 49.298H223.888L225.554 45.14H227.598L223.3 55.024H221.326L222.852 51.664ZM233.667 51.664L230.783 45.14H232.869L234.605 49.298H234.703L236.369 45.14H238.413L234.115 55.024H232.141L233.667 51.664ZM242.223 44.916C242.755 44.916 243.241 45.0093 243.679 45.196C244.127 45.3733 244.51 45.6253 244.827 45.952C245.154 46.2693 245.406 46.652 245.583 47.1C245.77 47.548 245.863 48.038 245.863 48.57C245.863 49.102 245.77 49.592 245.583 50.04C245.406 50.488 245.154 50.8753 244.827 51.202C244.51 51.5193 244.127 51.7713 243.679 51.958C243.241 52.1353 242.755 52.224 242.223 52.224C241.691 52.224 241.201 52.1353 240.753 51.958C240.315 51.7713 239.932 51.5193 239.605 51.202C239.288 50.8753 239.036 50.488 238.849 50.04C238.672 49.592 238.583 49.102 238.583 48.57C238.583 48.038 238.672 47.548 238.849 47.1C239.036 46.652 239.288 46.2693 239.605 45.952C239.932 45.6253 240.315 45.3733 240.753 45.196C241.201 45.0093 241.691 44.916 242.223 44.916ZM242.223 50.53C242.457 50.53 242.681 50.488 242.895 50.404C243.119 50.3107 243.315 50.18 243.483 50.012C243.651 49.844 243.782 49.6387 243.875 49.396C243.978 49.1533 244.029 48.878 244.029 48.57C244.029 48.262 243.978 47.9867 243.875 47.744C243.782 47.5013 243.651 47.296 243.483 47.128C243.315 46.96 243.119 46.834 242.895 46.75C242.681 46.6567 242.457 46.61 242.223 46.61C241.981 46.61 241.752 46.6567 241.537 46.75C241.323 46.834 241.131 46.96 240.963 47.128C240.795 47.296 240.66 47.5013 240.557 47.744C240.464 47.9867 240.417 48.262 240.417 48.57C240.417 48.878 240.464 49.1533 240.557 49.396C240.66 49.6387 240.795 49.844 240.963 50.012C241.131 50.18 241.323 50.3107 241.537 50.404C241.752 50.488 241.981 50.53 242.223 50.53ZM251.719 51.104H251.607C251.393 51.4493 251.103 51.7247 250.739 51.93C250.375 52.126 249.96 52.224 249.493 52.224C248.625 52.224 247.977 51.958 247.547 51.426C247.127 50.894 246.917 50.1847 246.917 49.298V45.14H248.751V49.074C248.751 49.5687 248.859 49.9373 249.073 50.18C249.297 50.4133 249.619 50.53 250.039 50.53C250.291 50.53 250.511 50.4787 250.697 50.376C250.893 50.264 251.057 50.1193 251.187 49.942C251.327 49.7553 251.43 49.5407 251.495 49.298C251.57 49.046 251.607 48.78 251.607 48.5V45.14H253.441V52H251.719V51.104Z" fill="#202832"/>
<rect x="137.5" y="76.5" width="53" height="53" rx="26.5" stroke="#202832" stroke-dasharray="9 9"/>
<path d="M165.208 103.604H169.312V106.388H165.208V110.468H162.424V106.388H158.344V103.604H162.424V99.524H165.208V103.604Z" fill="#202832"/>
<path d="M77.344 159.736C77.344 160.76 76.896 161.624 76 162.328C75.104 163.032 73.976 163.384 72.616 163.384C71.432 163.384 70.392 163.08 69.496 162.472C68.6 161.848 67.96 161.032 67.576 160.024L69.544 159.184C69.832 159.888 70.248 160.44 70.792 160.84C71.352 161.224 71.96 161.416 72.616 161.416C73.32 161.416 73.904 161.264 74.368 160.96C74.848 160.656 75.088 160.296 75.088 159.88C75.088 159.128 74.512 158.576 73.36 158.224L71.344 157.72C69.056 157.144 67.912 156.04 67.912 154.408C67.912 153.336 68.344 152.48 69.208 151.84C70.088 151.184 71.208 150.856 72.568 150.856C73.608 150.856 74.544 151.104 75.376 151.6C76.224 152.096 76.816 152.76 77.152 153.592L75.184 154.408C74.96 153.912 74.592 153.528 74.08 153.256C73.584 152.968 73.024 152.824 72.4 152.824C71.824 152.824 71.304 152.968 70.84 153.256C70.392 153.544 70.168 153.896 70.168 154.312C70.168 154.984 70.8 155.464 72.064 155.752L73.84 156.208C76.176 156.784 77.344 157.96 77.344 159.736ZM84.6631 163.384C82.9351 163.384 81.5111 162.792 80.3911 161.608C79.2711 160.424 78.7111 158.928 78.7111 157.12C78.7111 155.328 79.2551 153.84 80.3431 152.656C81.4311 151.456 82.8231 150.856 84.5191 150.856C86.2631 150.856 87.6471 151.424 88.6711 152.56C89.7111 153.68 90.2311 155.256 90.2311 157.288L90.2071 157.528H80.9671C80.9991 158.68 81.3831 159.608 82.1191 160.312C82.8551 161.016 83.7351 161.368 84.7591 161.368C86.1671 161.368 87.2711 160.664 88.0711 159.256L90.0391 160.216C89.5111 161.208 88.7751 161.984 87.8311 162.544C86.9031 163.104 85.8471 163.384 84.6631 163.384ZM81.1351 155.704H87.8791C87.8151 154.888 87.4791 154.216 86.8711 153.688C86.2791 153.144 85.4791 152.872 84.4711 152.872C83.6391 152.872 82.9191 153.128 82.3111 153.64C81.7191 154.152 81.3271 154.84 81.1351 155.704ZM93.9754 159.4C93.9754 159.976 94.2154 160.456 94.6954 160.84C95.1914 161.224 95.7674 161.416 96.4234 161.416C97.3514 161.416 98.1754 161.072 98.8954 160.384C99.6314 159.696 99.9994 158.888 99.9994 157.96C99.3114 157.416 98.3514 157.144 97.1194 157.144C96.2234 157.144 95.4714 157.36 94.8634 157.792C94.2714 158.224 93.9754 158.76 93.9754 159.4ZM96.8314 150.856C98.4634 150.856 99.7514 151.296 100.695 152.176C101.639 153.04 102.111 154.232 102.111 155.752V163H99.9994V161.368H99.9034C98.9914 162.712 97.7754 163.384 96.2554 163.384C94.9594 163.384 93.8714 163 92.9914 162.232C92.1274 161.464 91.6954 160.504 91.6954 159.352C91.6954 158.136 92.1514 157.168 93.0634 156.448C93.9914 155.728 95.2234 155.368 96.7594 155.368C98.0714 155.368 99.1514 155.608 99.9994 156.088V155.584C99.9994 154.816 99.6954 154.168 99.0874 153.64C98.4794 153.096 97.7674 152.824 96.9514 152.824C95.7194 152.824 94.7434 153.344 94.0234 154.384L92.0794 153.16C93.1514 151.624 94.7354 150.856 96.8314 150.856ZM106.81 163H104.602V151.24H106.714V153.16H106.81C107.034 152.536 107.49 152.008 108.178 151.576C108.882 151.128 109.57 150.904 110.242 150.904C110.882 150.904 111.426 151 111.874 151.192L111.202 153.328C110.93 153.216 110.498 153.16 109.906 153.16C109.074 153.16 108.346 153.496 107.722 154.168C107.114 154.84 106.81 155.624 106.81 156.52V163ZM117.97 163.384C116.226 163.384 114.778 162.792 113.626 161.608C112.49 160.392 111.922 158.896 111.922 157.12C111.922 155.312 112.49 153.816 113.626 152.632C114.778 151.448 116.226 150.856 117.97 150.856C119.17 150.856 120.218 151.16 121.114 151.768C122.01 152.36 122.682 153.184 123.13 154.24L121.114 155.08C120.49 153.608 119.394 152.872 117.826 152.872C116.818 152.872 115.946 153.28 115.21 154.096C114.49 154.912 114.13 155.92 114.13 157.12C114.13 158.32 114.49 159.328 115.21 160.144C115.946 160.96 116.818 161.368 117.826 161.368C119.442 161.368 120.578 160.632 121.234 159.16L123.202 160C122.77 161.056 122.09 161.888 121.162 162.496C120.25 163.088 119.186 163.384 117.97 163.384ZM125.133 145.816H127.341V151.24L127.245 152.872H127.341C127.677 152.296 128.189 151.816 128.877 151.432C129.581 151.048 130.309 150.856 131.061 150.856C132.501 150.856 133.605 151.272 134.373 152.104C135.157 152.92 135.549 154.088 135.549 155.608V163H133.341V156.04C133.341 153.928 132.405 152.872 130.533 152.872C129.637 152.872 128.877 153.248 128.253 154C127.645 154.736 127.341 155.6 127.341 156.592V163H125.133V145.816ZM148.79 163.384C147.046 163.384 145.598 162.792 144.446 161.608C143.31 160.392 142.742 158.896 142.742 157.12C142.742 155.312 143.31 153.816 144.446 152.632C145.598 151.448 147.046 150.856 148.79 150.856C149.99 150.856 151.038 151.16 151.934 151.768C152.83 152.36 153.502 153.184 153.95 154.24L151.934 155.08C151.31 153.608 150.214 152.872 148.646 152.872C147.638 152.872 146.766 153.28 146.03 154.096C145.31 154.912 144.95 155.92 144.95 157.12C144.95 158.32 145.31 159.328 146.03 160.144C146.766 160.96 147.638 161.368 148.646 161.368C150.262 161.368 151.398 160.632 152.054 159.16L154.022 160C153.59 161.056 152.91 161.888 151.982 162.496C151.07 163.088 150.006 163.384 148.79 163.384ZM155.164 157.12C155.164 155.312 155.732 153.816 156.868 152.632C158.02 151.448 159.468 150.856 161.212 150.856C162.956 150.856 164.396 151.448 165.532 152.632C166.684 153.816 167.26 155.312 167.26 157.12C167.26 158.944 166.684 160.44 165.532 161.608C164.396 162.792 162.956 163.384 161.212 163.384C159.468 163.384 158.02 162.792 156.868 161.608C155.732 160.424 155.164 158.928 155.164 157.12ZM157.372 157.12C157.372 158.384 157.74 159.408 158.476 160.192C159.212 160.976 160.124 161.368 161.212 161.368C162.3 161.368 163.212 160.976 163.948 160.192C164.684 159.408 165.052 158.384 165.052 157.12C165.052 155.872 164.684 154.856 163.948 154.072C163.196 153.272 162.284 152.872 161.212 152.872C160.14 152.872 159.228 153.272 158.476 154.072C157.74 154.856 157.372 155.872 157.372 157.12ZM171.24 163H169.032V151.24H171.144V152.872H171.24C171.576 152.296 172.088 151.816 172.776 151.432C173.48 151.048 174.176 150.856 174.864 150.856C175.728 150.856 176.488 151.056 177.144 151.456C177.8 151.856 178.28 152.408 178.584 153.112C179.56 151.608 180.912 150.856 182.64 150.856C184 150.856 185.048 151.272 185.784 152.104C186.52 152.936 186.888 154.12 186.888 155.656V163H184.68V155.992C184.68 154.888 184.48 154.096 184.08 153.616C183.68 153.12 183.008 152.872 182.064 152.872C181.216 152.872 180.504 153.232 179.928 153.952C179.352 154.672 179.064 155.52 179.064 156.496V163H176.856V155.992C176.856 154.888 176.656 154.096 176.256 153.616C175.856 153.12 175.184 152.872 174.24 152.872C173.392 152.872 172.68 153.232 172.104 153.952C171.528 154.672 171.24 155.52 171.24 156.496V163ZM191.677 163H189.469V151.24H191.581V152.872H191.677C192.013 152.296 192.525 151.816 193.213 151.432C193.917 151.048 194.613 150.856 195.301 150.856C196.165 150.856 196.925 151.056 197.581 151.456C198.237 151.856 198.717 152.408 199.021 153.112C199.997 151.608 201.349 150.856 203.077 150.856C204.437 150.856 205.485 151.272 206.221 152.104C206.957 152.936 207.325 154.12 207.325 155.656V163H205.117V155.992C205.117 154.888 204.917 154.096 204.517 153.616C204.117 153.12 203.445 152.872 202.501 152.872C201.653 152.872 200.941 153.232 200.365 153.952C199.789 154.672 199.501 155.52 199.501 156.496V163H197.293V155.992C197.293 154.888 197.093 154.096 196.693 153.616C196.293 153.12 195.621 152.872 194.677 152.872C193.829 152.872 193.117 153.232 192.541 153.952C191.965 154.672 191.677 155.52 191.677 156.496V163ZM220.227 163H218.115V161.368H218.019C217.683 161.944 217.163 162.424 216.459 162.808C215.771 163.192 215.051 163.384 214.299 163.384C212.859 163.384 211.747 162.976 210.963 162.16C210.195 161.328 209.811 160.152 209.811 158.632V151.24H212.019V158.488C212.067 160.408 213.035 161.368 214.923 161.368C215.803 161.368 216.539 161.016 217.131 160.312C217.723 159.592 218.019 158.736 218.019 157.744V151.24H220.227V163ZM222.914 151.24H225.026V152.872H225.122C225.458 152.296 225.97 151.816 226.658 151.432C227.362 151.048 228.09 150.856 228.842 150.856C230.282 150.856 231.386 151.272 232.154 152.104C232.938 152.92 233.33 154.088 233.33 155.608V163H231.122V155.752C231.074 153.832 230.106 152.872 228.218 152.872C227.338 152.872 226.602 153.232 226.01 153.952C225.418 154.656 225.122 155.504 225.122 156.496V163H222.914V151.24ZM238.778 147.184C238.778 147.616 238.626 147.984 238.322 148.288C238.018 148.592 237.65 148.744 237.218 148.744C236.786 148.744 236.418 148.592 236.114 148.288C235.81 147.984 235.658 147.616 235.658 147.184C235.658 146.752 235.81 146.384 236.114 146.08C236.418 145.776 236.786 145.624 237.218 145.624C237.65 145.624 238.018 145.776 238.322 146.08C238.626 146.384 238.778 146.752 238.778 147.184ZM238.322 151.24V163H236.114V151.24H238.322ZM245.734 163.192C244.774 163.192 243.974 162.896 243.334 162.304C242.71 161.712 242.39 160.888 242.374 159.832V153.256H240.31V151.24H242.374V147.64H244.582V151.24H247.462V153.256H244.582V159.112C244.582 159.896 244.734 160.432 245.038 160.72C245.342 160.992 245.686 161.128 246.07 161.128C246.246 161.128 246.414 161.112 246.574 161.08C246.75 161.032 246.91 160.976 247.054 160.912L247.75 162.88C247.174 163.088 246.502 163.192 245.734 163.192ZM260.192 151.24L252.824 168.184H250.544L253.28 162.256L248.432 151.24H250.832L254.336 159.688H254.384L257.792 151.24H260.192Z" fill="#202832"/>
</svg>
