<svg width="189" height="78" viewBox="0 0 189 78" fill="none" xmlns="http://www.w3.org/2000/svg">
<rect width="189" height="78" rx="10" fill="#2F3A47"/>
<path d="M19.936 27.776V35.744H33.712V41.888H19.936V49.856H35.248V56H13.456V21.632H35.248V27.776H19.936ZM57.0205 53.168H56.6365C56.0605 54.16 55.1645 55.008 53.9485 55.712C52.7325 56.416 51.2285 56.768 49.4365 56.768C47.9325 56.768 46.4925 56.464 45.1165 55.856C43.7725 55.216 42.5725 54.352 41.5165 53.264C40.4925 52.144 39.6765 50.816 39.0685 49.28C38.4605 47.744 38.1565 46.064 38.1565 44.24C38.1565 42.416 38.4605 40.736 39.0685 39.2C39.6765 37.664 40.4925 36.352 41.5165 35.264C42.5725 34.144 43.7725 33.28 45.1165 32.672C46.4925 32.032 47.9325 31.712 49.4365 31.712C51.2285 31.712 52.7325 32.064 53.9485 32.768C55.1645 33.472 56.0605 34.32 56.6365 35.312H57.0205L56.6365 31.952V21.632H62.9245V56H57.0205V53.168ZM50.7325 50.96C51.5645 50.96 52.3485 50.816 53.0845 50.528C53.8525 50.208 54.5245 49.76 55.1005 49.184C55.6765 48.608 56.1405 47.904 56.4925 47.072C56.8445 46.24 57.0205 45.296 57.0205 44.24C57.0205 43.184 56.8445 42.24 56.4925 41.408C56.1405 40.576 55.6765 39.872 55.1005 39.296C54.5245 38.72 53.8525 38.288 53.0845 38C52.3485 37.68 51.5645 37.52 50.7325 37.52C49.9005 37.52 49.1005 37.68 48.3325 38C47.5965 38.32 46.9405 38.768 46.3645 39.344C45.7885 39.92 45.3245 40.624 44.9725 41.456C44.6205 42.288 44.4445 43.216 44.4445 44.24C44.4445 45.264 44.6205 46.192 44.9725 47.024C45.3245 47.856 45.7885 48.56 46.3645 49.136C46.9405 49.712 47.5965 50.16 48.3325 50.48C49.1005 50.8 49.9005 50.96 50.7325 50.96ZM84.5538 52.928H84.1698C83.4338 54.112 82.4418 55.056 81.1938 55.76C79.9458 56.432 78.5218 56.768 76.9218 56.768C73.9458 56.768 71.7218 55.856 70.2498 54.032C68.8098 52.208 68.0898 49.776 68.0898 46.736V32.48H74.3778V45.968C74.3778 47.664 74.7458 48.928 75.4818 49.76C76.2498 50.56 77.3538 50.96 78.7938 50.96C79.6578 50.96 80.4098 50.784 81.0498 50.432C81.7218 50.048 82.2818 49.552 82.7298 48.944C83.2098 48.304 83.5618 47.568 83.7858 46.736C84.0418 45.872 84.1698 44.96 84.1698 44V32.48H90.4578V56H84.5538V52.928Z" fill="#CEFD4A"/>
<path d="M101.748 35.552H102.132C102.868 34.368 103.86 33.44 105.108 32.768C106.356 32.064 107.78 31.712 109.38 31.712C110.852 31.712 112.148 31.952 113.268 32.432C114.388 32.912 115.3 33.6 116.004 34.496C116.74 35.36 117.284 36.416 117.636 37.664C118.02 38.88 118.212 40.24 118.212 41.744V56H111.924V42.512C111.924 40.816 111.54 39.568 110.772 38.768C110.036 37.936 108.948 37.52 107.508 37.52C106.644 37.52 105.876 37.712 105.204 38.096C104.564 38.448 104.004 38.944 103.524 39.584C103.076 40.192 102.724 40.928 102.468 41.792C102.244 42.624 102.132 43.52 102.132 44.48V56H95.8443V32.48H101.748V35.552ZM126.911 29.072C126.367 29.072 125.839 28.976 125.327 28.784C124.847 28.56 124.415 28.272 124.031 27.92C123.679 27.536 123.391 27.104 123.167 26.624C122.975 26.144 122.879 25.616 122.879 25.04C122.879 24.464 122.975 23.936 123.167 23.456C123.391 22.976 123.679 22.56 124.031 22.208C124.415 21.824 124.847 21.536 125.327 21.344C125.839 21.12 126.367 21.008 126.911 21.008C128.031 21.008 128.991 21.408 129.791 22.208C130.591 22.976 130.991 23.92 130.991 25.04C130.991 26.16 130.591 27.12 129.791 27.92C128.991 28.688 128.031 29.072 126.911 29.072ZM123.791 56V32.48H130.079V56H123.791ZM138.186 37.856H134.058V32.48H138.186V25.28H144.474V32.48H150.234V37.856H144.474V46.976C144.474 47.52 144.522 48.032 144.618 48.512C144.746 48.96 144.97 49.344 145.29 49.664C145.738 50.176 146.378 50.432 147.21 50.432C147.754 50.432 148.186 50.384 148.506 50.288C148.826 50.16 149.13 50 149.418 49.808L151.194 55.328C150.458 55.68 149.658 55.936 148.794 56.096C147.962 56.288 147.034 56.384 146.01 56.384C144.826 56.384 143.754 56.208 142.794 55.856C141.866 55.472 141.082 54.96 140.442 54.32C138.938 52.88 138.186 50.832 138.186 48.176V37.856ZM162.486 54.848L152.598 32.48H159.75L165.702 46.736H166.038L171.75 32.48H178.758L164.022 66.368H157.254L162.486 54.848Z" fill="#EEEEEE"/>
</svg>
