<svg width="309" height="78" viewBox="0 0 309 78" fill="none" xmlns="http://www.w3.org/2000/svg">
<path d="M13.456 21.632H19.936V35.36H34.384V21.632H40.864V56H34.384V41.504H19.936V56H13.456V21.632ZM69.2725 50.336C68.1845 52.256 66.7125 53.808 64.8565 54.992C63.0325 56.176 60.7925 56.768 58.1365 56.768C56.3445 56.768 54.6805 56.464 53.1445 55.856C51.6405 55.216 50.3285 54.336 49.2085 53.216C48.0885 52.096 47.2085 50.784 46.5685 49.28C45.9605 47.744 45.6565 46.064 45.6565 44.24C45.6565 42.544 45.9605 40.944 46.5685 39.44C47.1765 37.904 48.0245 36.576 49.1125 35.456C50.2005 34.304 51.4805 33.392 52.9525 32.72C54.4565 32.048 56.1045 31.712 57.8965 31.712C59.7845 31.712 61.4645 32.032 62.9365 32.672C64.4085 33.28 65.6405 34.144 66.6325 35.264C67.6245 36.352 68.3765 37.648 68.8885 39.152C69.4005 40.656 69.6565 42.288 69.6565 44.048C69.6565 44.272 69.6565 44.464 69.6565 44.624C69.6245 44.816 69.6085 44.992 69.6085 45.152C69.5765 45.312 69.5605 45.488 69.5605 45.68H51.8485C51.9765 46.64 52.2325 47.472 52.6165 48.176C53.0325 48.848 53.5285 49.424 54.1045 49.904C54.7125 50.352 55.3685 50.688 56.0725 50.912C56.7765 51.104 57.4965 51.2 58.2325 51.2C59.6725 51.2 60.8565 50.88 61.7845 50.24C62.7445 49.568 63.4965 48.736 64.0405 47.744L69.2725 50.336ZM63.5605 41.216C63.5285 40.8 63.3845 40.336 63.1285 39.824C62.9045 39.312 62.5525 38.832 62.0725 38.384C61.6245 37.936 61.0485 37.568 60.3445 37.28C59.6725 36.992 58.8565 36.848 57.8965 36.848C56.5525 36.848 55.3685 37.232 54.3445 38C53.3205 38.768 52.6005 39.84 52.1845 41.216H63.5605ZM73.6724 56V21.632H79.9604V56H73.6724ZM85.1523 32.48H91.0563V35.312H91.4403C92.0163 34.32 92.9123 33.472 94.1283 32.768C95.3443 32.064 96.8483 31.712 98.6403 31.712C100.144 31.712 101.568 32.032 102.912 32.672C104.288 33.28 105.488 34.144 106.512 35.264C107.568 36.352 108.4 37.664 109.008 39.2C109.616 40.736 109.92 42.416 109.92 44.24C109.92 46.064 109.616 47.744 109.008 49.28C108.4 50.816 107.568 52.144 106.512 53.264C105.488 54.352 104.288 55.216 102.912 55.856C101.568 56.464 100.144 56.768 98.6403 56.768C96.8483 56.768 95.3443 56.416 94.1283 55.712C92.9123 55.008 92.0163 54.16 91.4403 53.168H91.0563L91.4403 56.528V66.368H85.1523V32.48ZM97.3443 50.96C98.1763 50.96 98.9603 50.8 99.6963 50.48C100.464 50.16 101.136 49.712 101.712 49.136C102.288 48.56 102.752 47.856 103.104 47.024C103.456 46.192 103.632 45.264 103.632 44.24C103.632 43.216 103.456 42.288 103.104 41.456C102.752 40.624 102.288 39.92 101.712 39.344C101.136 38.768 100.464 38.32 99.6963 38C98.9603 37.68 98.1763 37.52 97.3443 37.52C96.5123 37.52 95.7123 37.68 94.9443 38C94.2083 38.288 93.5523 38.72 92.9763 39.296C92.4003 39.872 91.9363 40.576 91.5843 41.408C91.2323 42.24 91.0563 43.184 91.0563 44.24C91.0563 45.296 91.2323 46.24 91.5843 47.072C91.9363 47.904 92.4003 48.608 92.9763 49.184C93.5523 49.76 94.2083 50.208 94.9443 50.528C95.7123 50.816 96.5123 50.96 97.3443 50.96Z" fill="#CEFD4A"/>
<path d="M130.978 56.768C128.418 56.768 126.034 56.304 123.826 55.376C121.65 54.448 119.762 53.184 118.162 51.584C116.562 49.952 115.298 48.048 114.37 45.872C113.474 43.664 113.026 41.312 113.026 38.816C113.026 36.32 113.474 33.984 114.37 31.808C115.298 29.6 116.562 27.696 118.162 26.096C119.762 24.464 121.65 23.184 123.826 22.256C126.034 21.328 128.418 20.864 130.978 20.864C133.538 20.864 135.906 21.328 138.082 22.256C140.29 23.184 142.194 24.464 143.794 26.096C145.394 27.696 146.642 29.6 147.538 31.808C148.466 33.984 148.93 36.32 148.93 38.816C148.93 41.312 148.466 43.664 147.538 45.872C146.642 48.048 145.394 49.952 143.794 51.584C142.194 53.184 140.29 54.448 138.082 55.376C135.906 56.304 133.538 56.768 130.978 56.768ZM130.978 50.624C132.578 50.624 134.066 50.336 135.442 49.76C136.85 49.184 138.066 48.384 139.09 47.36C140.146 46.336 140.962 45.104 141.538 43.664C142.146 42.192 142.45 40.576 142.45 38.816C142.45 37.056 142.146 35.456 141.538 34.016C140.962 32.544 140.146 31.296 139.09 30.272C138.066 29.248 136.85 28.448 135.442 27.872C134.066 27.296 132.578 27.008 130.978 27.008C129.378 27.008 127.874 27.296 126.466 27.872C125.09 28.448 123.874 29.248 122.818 30.272C121.794 31.296 120.978 32.544 120.37 34.016C119.794 35.456 119.506 37.056 119.506 38.816C119.506 40.576 119.794 42.192 120.37 43.664C120.978 45.104 121.794 46.336 122.818 47.36C123.874 48.384 125.09 49.184 126.466 49.76C127.874 50.336 129.378 50.624 130.978 50.624ZM169.679 52.928H169.295C168.559 54.112 167.567 55.056 166.319 55.76C165.071 56.432 163.647 56.768 162.047 56.768C159.071 56.768 156.847 55.856 155.375 54.032C153.935 52.208 153.215 49.776 153.215 46.736V32.48H159.503V45.968C159.503 47.664 159.871 48.928 160.607 49.76C161.375 50.56 162.479 50.96 163.919 50.96C164.783 50.96 165.535 50.784 166.175 50.432C166.847 50.048 167.407 49.552 167.855 48.944C168.335 48.304 168.687 47.568 168.911 46.736C169.167 45.872 169.295 44.96 169.295 44V32.48H175.583V56H169.679V52.928ZM183.796 37.856H179.668V32.48H183.796V25.28H190.084V32.48H195.844V37.856H190.084V46.976C190.084 47.52 190.132 48.032 190.228 48.512C190.356 48.96 190.58 49.344 190.9 49.664C191.348 50.176 191.988 50.432 192.82 50.432C193.364 50.432 193.796 50.384 194.116 50.288C194.436 50.16 194.74 50 195.028 49.808L196.804 55.328C196.068 55.68 195.268 55.936 194.404 56.096C193.572 56.288 192.644 56.384 191.62 56.384C190.436 56.384 189.364 56.208 188.404 55.856C187.476 55.472 186.692 54.96 186.052 54.32C184.548 52.88 183.796 50.832 183.796 48.176V37.856ZM220.363 21.632H227.755L240.667 56H233.515L230.683 47.792H217.435L214.603 56H207.451L220.363 21.632ZM228.571 41.84L225.499 33.248L224.251 29.072H223.867L222.619 33.248L219.547 41.84H228.571ZM243.965 32.48H249.869V35.312H250.253C250.829 34.32 251.725 33.472 252.941 32.768C254.157 32.064 255.661 31.712 257.453 31.712C258.957 31.712 260.381 32.032 261.725 32.672C263.101 33.28 264.301 34.144 265.325 35.264C266.381 36.352 267.213 37.664 267.821 39.2C268.429 40.736 268.733 42.416 268.733 44.24C268.733 46.064 268.429 47.744 267.821 49.28C267.213 50.816 266.381 52.144 265.325 53.264C264.301 54.352 263.101 55.216 261.725 55.856C260.381 56.464 258.957 56.768 257.453 56.768C255.661 56.768 254.157 56.416 252.941 55.712C251.725 55.008 250.829 54.16 250.253 53.168H249.869L250.253 56.528V66.368H243.965V32.48ZM256.157 50.96C256.989 50.96 257.773 50.8 258.509 50.48C259.277 50.16 259.949 49.712 260.525 49.136C261.101 48.56 261.565 47.856 261.917 47.024C262.269 46.192 262.445 45.264 262.445 44.24C262.445 43.216 262.269 42.288 261.917 41.456C261.565 40.624 261.101 39.92 260.525 39.344C259.949 38.768 259.277 38.32 258.509 38C257.773 37.68 256.989 37.52 256.157 37.52C255.325 37.52 254.525 37.68 253.757 38C253.021 38.288 252.365 38.72 251.789 39.296C251.213 39.872 250.749 40.576 250.397 41.408C250.045 42.24 249.869 43.184 249.869 44.24C249.869 45.296 250.045 46.24 250.397 47.072C250.749 47.904 251.213 48.608 251.789 49.184C252.365 49.76 253.021 50.208 253.757 50.528C254.525 50.816 255.325 50.96 256.157 50.96ZM272.09 32.48H277.994V35.312H278.378C278.954 34.32 279.85 33.472 281.066 32.768C282.282 32.064 283.786 31.712 285.578 31.712C287.082 31.712 288.506 32.032 289.85 32.672C291.226 33.28 292.426 34.144 293.45 35.264C294.506 36.352 295.338 37.664 295.946 39.2C296.554 40.736 296.858 42.416 296.858 44.24C296.858 46.064 296.554 47.744 295.946 49.28C295.338 50.816 294.506 52.144 293.45 53.264C292.426 54.352 291.226 55.216 289.85 55.856C288.506 56.464 287.082 56.768 285.578 56.768C283.786 56.768 282.282 56.416 281.066 55.712C279.85 55.008 278.954 54.16 278.378 53.168H277.994L278.378 56.528V66.368H272.09V32.48ZM284.282 50.96C285.114 50.96 285.898 50.8 286.634 50.48C287.402 50.16 288.074 49.712 288.65 49.136C289.226 48.56 289.69 47.856 290.042 47.024C290.394 46.192 290.57 45.264 290.57 44.24C290.57 43.216 290.394 42.288 290.042 41.456C289.69 40.624 289.226 39.92 288.65 39.344C288.074 38.768 287.402 38.32 286.634 38C285.898 37.68 285.114 37.52 284.282 37.52C283.45 37.52 282.65 37.68 281.882 38C281.146 38.288 280.49 38.72 279.914 39.296C279.338 39.872 278.874 40.576 278.522 41.408C278.17 42.24 277.994 43.184 277.994 44.24C277.994 45.296 278.17 46.24 278.522 47.072C278.874 47.904 279.338 48.608 279.914 49.184C280.49 49.76 281.146 50.208 281.882 50.528C282.65 50.816 283.45 50.96 284.282 50.96Z" fill="#EEEEEE"/>
</svg>
