<svg width="35" height="34" viewBox="0 0 35 34" fill="none" xmlns="http://www.w3.org/2000/svg">
<path d="M4.77637 14.9667C4.77637 14.1531 4.77637 13.7462 4.88124 13.3716C4.97414 13.0397 5.1268 12.7275 5.33174 12.4505C5.56309 12.1377 5.88423 11.8879 6.5265 11.3883L16.1348 3.91524C16.6325 3.52813 16.8813 3.33458 17.1561 3.26017C17.3986 3.19453 17.6541 3.19453 17.8966 3.26017C18.1714 3.33458 18.4203 3.52813 18.918 3.91524L28.5262 11.3883C29.1685 11.8879 29.4896 12.1377 29.721 12.4505C29.9259 12.7275 30.0786 13.0397 30.1715 13.3716C30.2764 13.7462 30.2764 14.1531 30.2764 14.9667V25.2162C30.2764 26.803 30.2764 27.5964 29.9676 28.2025C29.6959 28.7356 29.2625 29.1691 28.7293 29.4407C28.1233 29.7496 27.3298 29.7496 25.743 29.7496H9.3097C7.72288 29.7496 6.92948 29.7496 6.32339 29.4407C5.79027 29.1691 5.35682 28.7356 5.08518 28.2025C4.77637 27.5964 4.77637 26.803 4.77637 25.2162V14.9667Z" fill="#CEFD4A" stroke="#CEFD4A" stroke-width="4" stroke-linecap="round" stroke-linejoin="round"/>
</svg>
