<svg width="35" height="34" viewBox="0 0 35 34" fill="none" xmlns="http://www.w3.org/2000/svg">
<rect x="1.47363" y="1" width="32" height="32" rx="16" fill="#CEFD4A"/>
<rect x="1.47363" y="1" width="32" height="32" rx="16" stroke="#CEFD4A" stroke-width="2"/>
<path d="M17.4736 18.3334C18.2099 18.3334 18.8069 17.7364 18.8069 17C18.8069 16.2636 18.2099 15.6667 17.4736 15.6667C16.7372 15.6667 16.1402 16.2636 16.1402 17C16.1402 17.7364 16.7372 18.3334 17.4736 18.3334Z" fill="#CEFD4A"/>
<path d="M26.8069 18.3334C27.5433 18.3334 28.1402 17.7364 28.1402 17C28.1402 16.2636 27.5433 15.6667 26.8069 15.6667C26.0705 15.6667 25.4736 16.2636 25.4736 17C25.4736 17.7364 26.0705 18.3334 26.8069 18.3334Z" fill="#CEFD4A"/>
<path d="M8.14022 18.3334C8.8766 18.3334 9.47355 17.7364 9.47355 17C9.47355 16.2636 8.8766 15.6667 8.14022 15.6667C7.40384 15.6667 6.80688 16.2636 6.80688 17C6.80688 17.7364 7.40384 18.3334 8.14022 18.3334Z" fill="#CEFD4A"/>
<path d="M17.4736 18.3334C18.2099 18.3334 18.8069 17.7364 18.8069 17C18.8069 16.2636 18.2099 15.6667 17.4736 15.6667C16.7372 15.6667 16.1402 16.2636 16.1402 17C16.1402 17.7364 16.7372 18.3334 17.4736 18.3334Z" stroke="#2F3A47" stroke-width="2" stroke-linecap="round" stroke-linejoin="round"/>
<path d="M26.8069 18.3334C27.5433 18.3334 28.1402 17.7364 28.1402 17C28.1402 16.2636 27.5433 15.6667 26.8069 15.6667C26.0705 15.6667 25.4736 16.2636 25.4736 17C25.4736 17.7364 26.0705 18.3334 26.8069 18.3334Z" stroke="#2F3A47" stroke-width="2" stroke-linecap="round" stroke-linejoin="round"/>
<path d="M8.14022 18.3334C8.8766 18.3334 9.47355 17.7364 9.47355 17C9.47355 16.2636 8.8766 15.6667 8.14022 15.6667C7.40384 15.6667 6.80688 16.2636 6.80688 17C6.80688 17.7364 7.40384 18.3334 8.14022 18.3334Z" stroke="#2F3A47" stroke-width="2" stroke-linecap="round" stroke-linejoin="round"/>
</svg>
