<svg width="35" height="34" viewBox="0 0 35 34" fill="none" xmlns="http://www.w3.org/2000/svg">
<path d="M13.9847 17C17.5055 17 20.3597 14.1458 20.3597 10.625C20.3597 7.10418 17.5055 4.25 13.9847 4.25C10.4639 4.25 7.60971 7.10418 7.60971 10.625C7.60971 14.1458 10.4639 17 13.9847 17Z" fill="#CEFD4A"/>
<path d="M13.9847 21.25C9.97466 21.25 6.41056 23.4381 4.15196 26.8293C3.65716 27.5722 3.40976 27.9437 3.43824 28.4182C3.46042 28.7877 3.70262 29.24 3.99784 29.4633C4.37699 29.75 4.89846 29.75 5.94139 29.75H22.028C23.071 29.75 23.5924 29.75 23.9716 29.4633C24.2668 29.24 24.509 28.7877 24.5312 28.4182C24.5597 27.9437 24.3123 27.5722 23.8175 26.8293C21.5589 23.4381 17.9948 21.25 13.9847 21.25Z" fill="#CEFD4A"/>
<path d="M26.0264 22.4356C28.0889 23.4717 29.8572 25.1344 31.148 27.2136C31.4036 27.6254 31.5314 27.8313 31.5756 28.1163C31.6654 28.6957 31.2692 29.4079 30.7296 29.6372C30.4641 29.75 30.1654 29.75 29.568 29.75M23.193 16.3373C25.2921 15.2942 26.7347 13.1281 26.7347 10.625C26.7347 8.12195 25.2921 5.95582 23.193 4.91266M20.3597 10.625C20.3597 14.1458 17.5055 17 13.9847 17C10.4639 17 7.60971 14.1458 7.60971 10.625C7.60971 7.10418 10.4639 4.25 13.9847 4.25C17.5055 4.25 20.3597 7.10418 20.3597 10.625ZM4.15196 26.8293C6.41056 23.4381 9.97466 21.25 13.9847 21.25C17.9948 21.25 21.5589 23.4381 23.8175 26.8293C24.3123 27.5722 24.5597 27.9437 24.5312 28.4182C24.509 28.7877 24.2668 29.24 23.9716 29.4633C23.5924 29.75 23.071 29.75 22.028 29.75H5.94139C4.89846 29.75 4.37699 29.75 3.99784 29.4633C3.70262 29.24 3.46042 28.7877 3.43824 28.4182C3.40976 27.9437 3.65716 27.5722 4.15196 26.8293Z" stroke="#CEFD4A" stroke-width="2" stroke-linecap="round" stroke-linejoin="round"/>
</svg>
