<svg width="22" height="25" viewBox="0 0 22 25" fill="none" xmlns="http://www.w3.org/2000/svg">
<path d="M21 9.88889H1M15.4444 1V5.44444M6.55556 1V5.44444M9.33333 14.3333L11 13.2222V18.7778M9.61111 18.7778H12.3889M6.33333 23.2222H15.6667C17.5335 23.2222 18.4669 23.2222 19.18 22.8589C19.8072 22.5393 20.3171 22.0294 20.6367 21.4022C21 20.6892 21 19.7557 21 17.8889V8.55556C21 6.68871 21 5.75529 20.6367 5.04225C20.3171 4.41505 19.8072 3.90511 19.18 3.58553C18.4669 3.22222 17.5335 3.22222 15.6667 3.22222H6.33333C4.46649 3.22222 3.53307 3.22222 2.82003 3.58553C2.19282 3.90511 1.68289 4.41505 1.36331 5.04225C1 5.75529 1 6.68871 1 8.55555V17.8889C1 19.7557 1 20.6892 1.36331 21.4022C1.68289 22.0294 2.19282 22.5393 2.82003 22.8589C3.53307 23.2222 4.46649 23.2222 6.33333 23.2222Z" stroke="#2F3A47" stroke-width="2" stroke-linecap="round" stroke-linejoin="round"/>
</svg>
