<svg width="31" height="30" viewBox="0 0 31 30" fill="none" xmlns="http://www.w3.org/2000/svg">
<path d="M4.27637 13.2064C4.27637 12.4884 4.27637 12.1295 4.3689 11.7989C4.45087 11.506 4.58557 11.2306 4.7664 10.9861C4.97054 10.7101 5.25389 10.4897 5.8206 10.049L14.2985 3.45506C14.7376 3.11349 14.9572 2.94271 15.1997 2.87706C15.4136 2.81914 15.6391 2.81914 15.8531 2.87706C16.0955 2.94271 16.3151 3.11349 16.7542 3.45506L25.2321 10.049C25.7988 10.4897 26.0822 10.7101 26.2863 10.9861C26.4672 11.2306 26.6019 11.506 26.6838 11.7989C26.7764 12.1295 26.7764 12.4884 26.7764 13.2064V22.25C26.7764 23.6502 26.7764 24.3502 26.5039 24.885C26.2642 25.3554 25.8817 25.7379 25.4113 25.9776C24.8766 26.25 24.1765 26.25 22.7764 26.25H8.27637C6.87624 26.25 6.17617 26.25 5.64139 25.9776C5.17099 25.7379 4.78853 25.3554 4.54885 24.885C4.27637 24.3502 4.27637 23.6502 4.27637 22.25V13.2064Z" stroke="#CEFD4A" stroke-width="2" stroke-linecap="round" stroke-linejoin="round"/>
</svg>
