<svg width="33" height="32" viewBox="0 0 33 32" fill="none" xmlns="http://www.w3.org/2000/svg">
<rect x="1.47363" y="1" width="30" height="30" rx="15" stroke="#CEFD4A" stroke-width="2"/>
<path d="M16.4736 17.25C17.164 17.25 17.7236 16.6904 17.7236 16C17.7236 15.3096 17.164 14.75 16.4736 14.75C15.7833 14.75 15.2236 15.3096 15.2236 16C15.2236 16.6904 15.7833 17.25 16.4736 17.25Z" stroke="#CEFD4A" stroke-width="2" stroke-linecap="round" stroke-linejoin="round"/>
<path d="M25.2236 17.25C25.914 17.25 26.4736 16.6904 26.4736 16C26.4736 15.3096 25.914 14.75 25.2236 14.75C24.5333 14.75 23.9736 15.3096 23.9736 16C23.9736 16.6904 24.5333 17.25 25.2236 17.25Z" stroke="#CEFD4A" stroke-width="2" stroke-linecap="round" stroke-linejoin="round"/>
<path d="M7.72363 17.25C8.41399 17.25 8.97363 16.6904 8.97363 16C8.97363 15.3096 8.41399 14.75 7.72363 14.75C7.03328 14.75 6.47363 15.3096 6.47363 16C6.47363 16.6904 7.03328 17.25 7.72363 17.25Z" stroke="#CEFD4A" stroke-width="2" stroke-linecap="round" stroke-linejoin="round"/>
</svg>
