<svg width="27" height="28" viewBox="0 0 27 28" fill="none" xmlns="http://www.w3.org/2000/svg">
<path fill-rule="evenodd" clip-rule="evenodd" d="M5.51079 8.01779L5.51171 8.01304L5.52695 7.95062C6.35267 4.56977 9.40442 2.0625 13.0368 2.0625C16.802 2.0625 19.9423 4.75638 20.6278 8.32266L20.6389 8.38042L20.6534 8.43743L23.9023 21.2298H2.95104L5.38989 8.64182L5.39647 8.60786L5.40187 8.57369C5.42972 8.39749 5.46351 8.22338 5.50303 8.05155L5.51079 8.01779ZM26.4737 23.2298L25.9657 21.2298L22.5919 7.94513C21.7288 3.45483 17.779 0.0625 13.0368 0.0625C8.46128 0.0625 4.62337 3.22069 3.58406 7.4761H3.57855L3.55389 7.60337C3.50407 7.82004 3.46148 8.03948 3.4264 8.26141L0.913854 21.2298L0.526367 23.2298H2.56356H6.27828C7.38185 25.9874 10.078 27.9366 13.2317 27.9366C16.3853 27.9366 19.0815 25.9874 20.185 23.2298H24.4102H26.4737ZM13.2317 25.9366C11.2474 25.9366 9.50756 24.8828 8.54388 23.3032H17.9194C16.9558 24.8828 15.2159 25.9366 13.2317 25.9366Z" fill="#CEFD4A"/>
</svg>
