<svg width="31" height="30" viewBox="0 0 31 30" fill="none" xmlns="http://www.w3.org/2000/svg">
<path d="M23.0264 19.7961C24.8463 20.7103 26.4066 22.1774 27.5455 24.012C27.771 24.3753 27.8838 24.557 27.9227 24.8085C28.002 25.3197 27.6524 25.9482 27.1763 26.1505C26.942 26.25 26.6785 26.25 26.1514 26.25M20.5264 14.4153C22.3786 13.4949 23.6514 11.5836 23.6514 9.375C23.6514 7.16642 22.3786 5.25514 20.5264 4.3347M18.0264 9.375C18.0264 12.4816 15.508 15 12.4014 15C9.29481 15 6.77641 12.4816 6.77641 9.375C6.77641 6.2684 9.29481 3.75 12.4014 3.75C15.508 3.75 18.0264 6.2684 18.0264 9.375ZM3.72545 23.6729C5.71833 20.6807 8.86312 18.75 12.4014 18.75C15.9397 18.75 19.0845 20.6807 21.0774 23.6729C21.514 24.3284 21.7322 24.6562 21.7071 25.0749C21.6875 25.4009 21.4738 25.8 21.2134 25.997C20.8788 26.25 20.4187 26.25 19.4985 26.25H5.30435C4.38412 26.25 3.924 26.25 3.58946 25.997C3.32897 25.8 3.11527 25.4009 3.0957 25.0749C3.07057 24.6562 3.28886 24.3284 3.72545 23.6729Z" stroke="#CEFD4A" stroke-width="2" stroke-linecap="round" stroke-linejoin="round"/>
</svg>
