<svg width="17" height="20" viewBox="0 0 17 20" fill="none" xmlns="http://www.w3.org/2000/svg">
<path d="M13.5 0C11.843 0 10.5 1.343 10.5 3C10.5 3.257 10.541 3.577 10.602 3.815L5.24899 7.55099C4.76999 7.22699 4.121 7 3.5 7C1.843 7 0.5 8.343 0.5 10C0.5 11.657 1.843 13 3.5 13C4.132 13 4.75599 12.765 5.23999 12.432L10.604 16.198C10.538 16.445 10.5 16.732 10.5 17C10.5 18.657 11.843 20 13.5 20C15.157 20 16.5 18.657 16.5 17C16.5 15.343 15.157 14 13.5 14C12.868 14 12.252 14.228 11.769 14.562L6.39099 10.799C6.45599 10.552 6.5 10.268 6.5 10C6.5 9.732 6.462 9.44301 6.396 9.19601L11.761 5.444C12.24 5.767 12.879 6 13.5 6C15.157 6 16.5 4.657 16.5 3C16.5 1.343 15.157 0 13.5 0ZM13.5 2C14.052 2 14.5 2.448 14.5 3C14.5 3.552 14.052 4 13.5 4C12.948 4 12.5 3.552 12.5 3C12.5 2.448 12.948 2 13.5 2ZM3.5 9C4.052 9 4.5 9.448 4.5 10C4.5 10.552 4.052 11 3.5 11C2.948 11 2.5 10.552 2.5 10C2.5 9.448 2.948 9 3.5 9ZM13.5 16C14.052 16 14.5 16.448 14.5 17C14.5 17.552 14.052 18 13.5 18C12.948 18 12.5 17.552 12.5 17C12.5 16.448 12.948 16 13.5 16Z" fill="#2F3A47"/>
</svg>
